<mxfile host="drawio-plugin" modified="2023-09-25T06:37:13.725Z" agent="5.0 (Windows NT 10.0; Win64; x64) AppleWebKit/537.36 (KHTML, like Gecko) Chrome/111.0.0.0 Safari/537.36" etag="iRKFElF47KVXoW7KdjDK" version="20.5.3" type="embed"><diagram id="23iRSUPoRavnBvh4doch" name="Page-1"><mxGraphModel dx="740" dy="1110" grid="1" gridSize="10" guides="1" tooltips="1" connect="1" arrows="1" fold="1" page="1" pageScale="1" pageWidth="827" pageHeight="1169" math="0" shadow="0"><root><mxCell id="0"/><mxCell id="1" parent="0"/><mxCell id="2" value="" style="rounded=0;whiteSpace=wrap;html=1;" parent="1" vertex="1"><mxGeometry x="120" y="80" width="520" height="1040" as="geometry"/></mxCell><mxCell id="7" style="rounded=0;orthogonalLoop=1;jettySize=auto;html=1;" edge="1" parent="1" source="3" target="5"><mxGeometry relative="1" as="geometry"/></mxCell><mxCell id="8" style="rounded=0;orthogonalLoop=1;jettySize=auto;html=1;entryX=0;entryY=0.5;entryDx=0;entryDy=0;" edge="1" parent="1" source="3" target="6"><mxGeometry relative="1" as="geometry"/></mxCell><mxCell id="10" style="edgeStyle=none;rounded=0;orthogonalLoop=1;jettySize=auto;html=1;entryX=0;entryY=0.5;entryDx=0;entryDy=0;" edge="1" parent="1" source="3" target="9"><mxGeometry relative="1" as="geometry"/></mxCell><mxCell id="12" style="edgeStyle=none;rounded=0;orthogonalLoop=1;jettySize=auto;html=1;entryX=0;entryY=0.5;entryDx=0;entryDy=0;" edge="1" parent="1" source="3" target="11"><mxGeometry relative="1" as="geometry"/></mxCell><mxCell id="3" value="Customer" style="shape=umlActor;verticalLabelPosition=bottom;verticalAlign=top;html=1;" parent="1" vertex="1"><mxGeometry x="40" y="210" width="30" height="60" as="geometry"/></mxCell><mxCell id="15" style="edgeStyle=none;rounded=0;orthogonalLoop=1;jettySize=auto;html=1;entryX=0;entryY=1;entryDx=0;entryDy=0;" edge="1" parent="1" source="4" target="11"><mxGeometry relative="1" as="geometry"/></mxCell><mxCell id="23" style="edgeStyle=none;rounded=0;orthogonalLoop=1;jettySize=auto;html=1;" edge="1" parent="1" source="4" target="22"><mxGeometry relative="1" as="geometry"/></mxCell><mxCell id="4" value="Employee" style="shape=umlActor;verticalLabelPosition=bottom;verticalAlign=top;html=1;" parent="1" vertex="1"><mxGeometry x="50" y="910" width="30" height="60" as="geometry"/></mxCell><mxCell id="18" style="edgeStyle=none;rounded=0;orthogonalLoop=1;jettySize=auto;html=1;" edge="1" parent="1" source="5" target="17"><mxGeometry relative="1" as="geometry"/></mxCell><mxCell id="28" style="rounded=0;orthogonalLoop=1;jettySize=auto;html=1;" edge="1" parent="1" source="5" target="25"><mxGeometry relative="1" as="geometry"/></mxCell><mxCell id="5" value="Market Place" style="ellipse;whiteSpace=wrap;html=1;" vertex="1" parent="1"><mxGeometry x="210" y="190" width="120" height="80" as="geometry"/></mxCell><mxCell id="19" style="edgeStyle=none;rounded=0;orthogonalLoop=1;jettySize=auto;html=1;entryX=0;entryY=0.5;entryDx=0;entryDy=0;" edge="1" parent="1" source="6" target="16"><mxGeometry relative="1" as="geometry"/></mxCell><mxCell id="6" value="Send Money" style="ellipse;whiteSpace=wrap;html=1;" vertex="1" parent="1"><mxGeometry x="210" y="340" width="120" height="80" as="geometry"/></mxCell><mxCell id="20" style="edgeStyle=none;rounded=0;orthogonalLoop=1;jettySize=auto;html=1;" edge="1" parent="1" source="9" target="16"><mxGeometry relative="1" as="geometry"/></mxCell><mxCell id="21" style="edgeStyle=none;rounded=0;orthogonalLoop=1;jettySize=auto;html=1;" edge="1" parent="1" source="9" target="17"><mxGeometry relative="1" as="geometry"/></mxCell><mxCell id="9" value="User" style="ellipse;whiteSpace=wrap;html=1;" vertex="1" parent="1"><mxGeometry x="210" y="480" width="120" height="80" as="geometry"/></mxCell><mxCell id="11" value="Authentication" style="ellipse;whiteSpace=wrap;html=1;" vertex="1" parent="1"><mxGeometry x="210" y="610" width="120" height="80" as="geometry"/></mxCell><mxCell id="16" value="Transactions" style="ellipse;whiteSpace=wrap;html=1;" vertex="1" parent="1"><mxGeometry x="414" y="410" width="120" height="80" as="geometry"/></mxCell><mxCell id="17" value="Trolleys" style="ellipse;whiteSpace=wrap;html=1;" vertex="1" parent="1"><mxGeometry x="410" y="260" width="120" height="80" as="geometry"/></mxCell><mxCell id="24" style="edgeStyle=orthogonalEdgeStyle;rounded=0;orthogonalLoop=1;jettySize=auto;html=1;curved=1;" edge="1" parent="1" source="22" target="9"><mxGeometry relative="1" as="geometry"><Array as="points"><mxPoint x="410" y="920"/><mxPoint x="410" y="520"/></Array></mxGeometry></mxCell><mxCell id="26" style="edgeStyle=orthogonalEdgeStyle;curved=1;rounded=0;orthogonalLoop=1;jettySize=auto;html=1;entryX=1.025;entryY=0.625;entryDx=0;entryDy=0;entryPerimeter=0;" edge="1" parent="1" source="22" target="25"><mxGeometry relative="1" as="geometry"><Array as="points"><mxPoint x="600" y="920"/><mxPoint x="600" y="160"/></Array></mxGeometry></mxCell><mxCell id="27" style="edgeStyle=orthogonalEdgeStyle;curved=1;rounded=0;orthogonalLoop=1;jettySize=auto;html=1;" edge="1" parent="1" source="22" target="16"><mxGeometry relative="1" as="geometry"/></mxCell><mxCell id="22" value="Management" style="ellipse;whiteSpace=wrap;html=1;" vertex="1" parent="1"><mxGeometry x="210" y="880" width="120" height="80" as="geometry"/></mxCell><mxCell id="25" value="Products" style="ellipse;whiteSpace=wrap;html=1;" vertex="1" parent="1"><mxGeometry x="414" y="110" width="120" height="80" as="geometry"/></mxCell></root></mxGraphModel></diagram></mxfile>